<svg width="23" height="18" viewBox="0 0 23 18" fill="none" xmlns="http://www.w3.org/2000/svg">
<path d="M1.75 1.39708e-05C1.65062 -0.00139156 1.55194 0.0169693 1.45972 0.0540296C1.36749 0.0910899 1.28355 0.146111 1.21277 0.215894C1.142 0.285677 1.08579 0.368832 1.04743 0.460524C1.00907 0.552217 0.989319 0.65062 0.989319 0.750014C0.989319 0.849408 1.00907 0.94781 1.04743 1.0395C1.08579 1.1312 1.142 1.21435 1.21277 1.28413C1.28355 1.35392 1.36749 1.40894 1.45972 1.446C1.55194 1.48306 1.65062 1.50142 1.75 1.50001H3.12793C3.4919 1.50001 3.79529 1.75148 3.86426 2.10939L4.01367 2.89064L5.62598 11.3584C5.91753 12.8862 7.26357 14 8.81934 14H18.1807C19.7364 14 21.083 12.8866 21.374 11.3584L22.9863 2.89064C23.007 2.78222 23.0035 2.67057 22.9761 2.56366C22.9486 2.45675 22.898 2.35722 22.8276 2.27215C22.7573 2.18709 22.6691 2.11859 22.5692 2.07155C22.4694 2.02451 22.3604 2.00008 22.25 2.00001H5.37012L5.33789 1.82912C5.13633 0.77278 4.20349 1.39708e-05 3.12793 1.39708e-05H1.75ZM5.65625 3.50001H21.3437L19.9004 11.0781C19.7424 11.9079 19.0259 12.5 18.1807 12.5H8.81934C7.9744 12.5 7.25839 11.9079 7.09961 11.0781V11.0772L5.65625 3.50001ZM10 15C9.60218 15 9.22064 15.1581 8.93934 15.4394C8.65804 15.7207 8.5 16.1022 8.5 16.5C8.5 16.8978 8.65804 17.2794 8.93934 17.5607C9.22064 17.842 9.60218 18 10 18C10.3978 18 10.7794 17.842 11.0607 17.5607C11.342 17.2794 11.5 16.8978 11.5 16.5C11.5 16.1022 11.342 15.7207 11.0607 15.4394C10.7794 15.1581 10.3978 15 10 15ZM17 15C16.6022 15 16.2206 15.1581 15.9393 15.4394C15.658 15.7207 15.5 16.1022 15.5 16.5C15.5 16.8978 15.658 17.2794 15.9393 17.5607C16.2206 17.842 16.6022 18 17 18C17.3978 18 17.7794 17.842 18.0607 17.5607C18.342 17.2794 18.5 16.8978 18.5 16.5C18.5 16.1022 18.342 15.7207 18.0607 15.4394C17.7794 15.1581 17.3978 15 17 15Z" fill="#2B2B2B"/>
</svg>
